<svg xmlns="http://www.w3.org/2000/svg" viewBox="0 0 100 100">
  <defs>
    <linearGradient id="grad" x1="0%" y1="0%" x2="100%" y2="100%">
      <stop offset="0%" style="stop-color:#10b981;stop-opacity:1" />
      <stop offset="100%" style="stop-color:#0891b2;stop-opacity:1" />
    </linearGradient>
  </defs>
  
  <!-- Background circle -->
  <circle cx="50" cy="50" r="45" fill="url(#grad)" stroke="#ffffff" stroke-width="3"/>
  
  <!-- Chat bubble icon -->
  <path d="M25 25 Q25 20 30 20 L70 20 Q75 20 75 25 L75 50 Q75 55 70 55 L40 55 L25 70 Z" 
        fill="#ffffff" stroke="none"/>
  
  <!-- Chat dots -->
  <circle cx="40" cy="37.5" r="3" fill="url(#grad)"/>
  <circle cx="50" cy="37.5" r="3" fill="url(#grad)"/>
  <circle cx="60" cy="37.5" r="3" fill="url(#grad)"/>
  
  <!-- Link symbol -->
  <path d="M35 65 Q30 65 30 70 Q30 75 35 75 L45 75 Q50 75 50 70 Q50 65 45 65" 
        stroke="#ffffff" stroke-width="3" fill="none" stroke-linecap="round"/>
  <path d="M55 65 Q60 65 60 70 Q60 75 65 75 L75 75 Q80 75 80 70 Q80 65 75 65" 
        stroke="#ffffff" stroke-width="3" fill="none" stroke-linecap="round"/>
  <path d="M45 70 L55 70" stroke="#ffffff" stroke-width="3" stroke-linecap="round"/>
</svg>
